<svg width="13" height="13" viewBox="0 0 13 13" fill="none" xmlns="http://www.w3.org/2000/svg">
<path d="M11.9844 1.46094C12.5 1.97656 12.5 2.79688 11.9844 3.3125L11.2812 4.01562L8.98438 1.71875L9.6875 1.01562C10.2031 0.5 11.0234 0.5 11.5391 1.01562L11.9844 1.46094ZM4.53125 6.17188L8.44531 2.25781L10.7422 4.55469L6.82812 8.46875C6.6875 8.60938 6.5 8.72656 6.3125 8.79688L4.22656 9.47656C4.01562 9.54688 3.80469 9.5 3.66406 9.33594C3.5 9.19531 3.45312 8.96094 3.52344 8.77344L4.20312 6.6875C4.27344 6.5 4.39062 6.3125 4.53125 6.17188ZM5 2C5.39844 2 5.75 2.35156 5.75 2.75C5.75 3.17188 5.39844 3.5 5 3.5H2.75C2.32812 3.5 2 3.85156 2 4.25V10.25C2 10.6719 2.32812 11 2.75 11H8.75C9.14844 11 9.5 10.6719 9.5 10.25V8C9.5 7.60156 9.82812 7.25 10.25 7.25C10.6484 7.25 11 7.60156 11 8V10.25C11 11.4922 9.99219 12.5 8.75 12.5H2.75C1.48438 12.5 0.5 11.4922 0.5 10.25V4.25C0.5 3.00781 1.48438 2 2.75 2H5Z" fill="#163047"/>
</svg>
