<svg width="11" height="13" viewBox="0 0 11 13" fill="none" xmlns="http://www.w3.org/2000/svg">
<path d="M3.66406 0.921875C3.78125 0.664062 4.03906 0.5 4.32031 0.5H7.15625C7.4375 0.5 7.69531 0.664062 7.8125 0.921875L8 1.25H10.25C10.6484 1.25 11 1.60156 11 2C11 2.42188 10.6484 2.75 10.25 2.75H1.25C0.828125 2.75 0.5 2.42188 0.5 2C0.5 1.60156 0.828125 1.25 1.25 1.25H3.5L3.66406 0.921875ZM9.73438 11.4453C9.71094 12.0547 9.21875 12.5 8.60938 12.5H2.86719C2.25781 12.5 1.76562 12.0547 1.74219 11.4453L1.22656 3.5H10.25L9.73438 11.4453Z" fill="#D4061D"/>
</svg>
